<svg width="8" height="7" viewBox="0 0 8 7" fill="none" xmlns="http://www.w3.org/2000/svg">
<path d="M6.92462 0.767878L7.42436 0.783998L7.44155 0.250942L6.9085 0.268138L6.92462 0.767878ZM0.914208 6.07118C0.718946 6.26644 0.718946 6.58302 0.914208 6.77829C1.10947 6.97355 1.42605 6.97355 1.62132 6.77829L0.914208 6.07118ZM6.80676 4.42126L7.3065 4.43738L7.42436 0.783998L6.92462 0.767878L6.42488 0.751757L6.30702 4.40514L6.80676 4.42126ZM6.92462 0.767878L6.9085 0.268138L3.25511 0.385989L3.27123 0.885729L3.28735 1.38547L6.94074 1.26762L6.92462 0.767878ZM6.92462 0.767878L6.57106 0.414324L0.914208 6.07118L1.26776 6.42473L1.62132 6.77829L7.27817 1.12143L6.92462 0.767878Z" fill="#222222"/>
</svg>
