<svg width="8" height="8" viewBox="0 0 8 8" fill="none" xmlns="http://www.w3.org/2000/svg">
<path d="M6.58275 1.39384L6.94014 1.38513L6.93184 1.04475L6.59147 1.03645L6.58275 1.39384ZM1.02666 6.44436C0.887044 6.58397 0.887044 6.81032 1.02666 6.94994C1.16627 7.08955 1.39263 7.08955 1.53224 6.94994L1.02666 6.44436ZM6.67114 5.01777L7.02853 5.00905L6.94014 1.38513L6.58275 1.39384L6.22535 1.40256L6.31374 5.02648L6.67114 5.01777ZM6.58275 1.39384L6.59147 1.03645L2.96754 0.948063L2.95883 1.30546L2.95011 1.66285L6.57403 1.75124L6.58275 1.39384ZM6.58275 1.39384L6.32996 1.14105L1.02666 6.44436L1.27945 6.69715L1.53224 6.94994L6.83554 1.64664L6.58275 1.39384Z" fill="white"/>
</svg>
