<?xml version="1.0" encoding="utf-8"?><svg viewBox="0 0 54 53" xmlns="http://www.w3.org/2000/svg" xmlns:xlink="http://www.w3.org/1999/xlink"><style>:root>svg{display:none}:root>svg:target{display:block}</style><svg fill="none" viewBox="0 0 44 25" id="anchor" xmlns="http://www.w3.org/2000/svg"><path d="M42 2L22 22 2 2" stroke="#fff" stroke-width="3.333"/></svg><svg fill="none" viewBox="0 0 21 21" id="call" xmlns="http://www.w3.org/2000/svg"><path fill-rule="evenodd" clip-rule="evenodd" d="M8.444 6.11c.525.583.359 1.244-.106 1.87-.11.148-.237.295-.39.456-.074.077-.132.136-.252.256l-.688.688c-.09.09.525 1.32 1.72 2.515 1.193 1.195 2.422 1.81 2.513 1.72l.687-.688c.379-.379.58-.562.855-.742.573-.376 1.197-.478 1.724-.007 1.72 1.23 2.694 1.985 3.17 2.48.931.968.81 2.455.006 3.304-.278.294-.631.648-1.048 1.05-2.523 2.523-7.846.987-11.926-3.097C.628 11.832-.907 6.508 1.61 3.989c.452-.459.6-.608 1.041-1.041.82-.808 2.376-.934 3.322 0 .498.492 1.291 1.513 2.47 3.164zM12.194.06a9.623 9.623 0 018.378 8.378l-2 .334a7.597 7.597 0 00-6.712-6.712l.334-2zm-.668 4a5.57 5.57 0 015.044 5.043l-2.007.335a3.544 3.544 0 00-3.372-3.372l.335-2.006z" fill="#1C2D4A"/></svg><svg fill="none" viewBox="0 0 21 22" id="google" xmlns="http://www.w3.org/2000/svg"><path d="M10.48 1.395a9.532 9.532 0 110 19.064 9.532 9.532 0 010-19.064z" fill="#1C2D4A" stroke="#1C2D4A" stroke-width="1.121"/><path d="M15.175 7.4L13.774 8.79c-.888-.94-1.923-1.41-3.105-1.41-1.03 0-1.894.341-2.591 1.025a3.37 3.37 0 00-1.04 2.492c0 1.011.36 1.868 1.082 2.57.722.703 1.612 1.054 2.67 1.054.689 0 1.268-.144 1.738-.434.474-.29.857-.743 1.146-1.36H10.64v-1.873h5.269l.014.442c0 .916-.237 1.785-.712 2.606s-1.09 1.448-1.844 1.88c-.755.432-1.64.648-2.656.648-1.087 0-2.058-.235-2.912-.705a5.24 5.24 0 01-2.022-2.022 5.65 5.65 0 01-.74-2.827c0-1.386.457-2.592 1.373-3.617 1.087-1.22 2.502-1.83 4.244-1.83.912 0 1.764.168 2.556.505.67.285 1.325.774 1.965 1.467z" fill="#F2F2F2"/></svg><svg fill="none" viewBox="0 0 18 18" id="insta" xmlns="http://www.w3.org/2000/svg"><rect x="1.313" y="1.767" width="15.137" height="14.739" rx="4.469" stroke="url(#dpaint0_linear_77_82)" stroke-width="2.235"/><rect x="1.313" y="1.767" width="15.137" height="14.739" rx="4.469" stroke="#191919" stroke-width="2.235"/><circle cx="8.881" cy="9.136" r="2.97" stroke="#191919" stroke-width="2.235"/><circle cx="12.969" cy="4.776" r="1.095" fill="#191919"/><defs><linearGradient id="dpaint0_linear_77_82" x1="8.882" y1=".649" x2="8.882" y2="17.623" gradientUnits="userSpaceOnUse"><stop stop-color="#D803DF"/><stop offset="1" stop-color="#FFA800"/></linearGradient></defs></svg><svg fill="none" viewBox="0 0 20 24" id="local" xmlns="http://www.w3.org/2000/svg"><path d="M10.481.916c2.565 0 5.102.928 6.82 2.748 1.704 1.806 2.653 4.544 1.958 8.282-.48 2.584-2.005 3.981-3.844 5.412-1.641 1.278-3.556 2.593-4.934 4.802-1.377-2.21-3.29-3.525-4.932-4.803-1.839-1.43-3.363-2.828-3.844-5.41-.695-3.739.254-6.477 1.958-8.283C5.381 1.844 7.917.916 10.481.916z" fill="#1C2D4A" stroke="#1C2D4A"/><path d="M10.481 13.569a3.439 3.439 0 100-6.878 3.439 3.439 0 000 6.878z" fill="#F2F2F2"/></svg><svg fill="none" viewBox="0 0 21 17" id="mail" xmlns="http://www.w3.org/2000/svg"><mask id="fa" style="mask-type:alpha" maskUnits="userSpaceOnUse" x="0" y="0" width="21" height="17"><path fill-rule="evenodd" clip-rule="evenodd" d="M2.223.008h16.515c1.014 0 1.835.821 1.835 1.835v12.845a1.835 1.835 0 01-1.835 1.835H2.223a1.835 1.835 0 01-1.835-1.835V1.843C.388.829 1.209.008 2.223.008z" fill="#D9D9D9"/></mask><g mask="url(#fa)"><path d="M18.738.001c1.014 0 1.835.823 1.835 1.836v12.845a1.835 1.835 0 01-1.835 1.835H2.223a1.835 1.835 0 01-1.835-1.835V1.837C.388.824 1.209.002 2.223.001h16.515z" fill="#1C2D4A"/><path fill-rule="evenodd" clip-rule="evenodd" d="M10.48 8.113l12.648-6.324 1.184 2.368-13.831 6.916-13.83-6.916 1.184-2.368L10.48 8.113z" fill="#F2F2F2"/></g></svg><svg fill="none" viewBox="0 0 8 7" id="ourProjects" xmlns="http://www.w3.org/2000/svg"><path d="M6.925.768l.5.016.017-.533-.534.017.017.5zM.915 6.07a.5.5 0 00.706.707l-.707-.707zm5.892-1.65l.5.016.117-3.653-.5-.016-.5-.016-.117 3.653.5.016zM6.925.768l-.016-.5-3.654.118.016.5.016.5 3.654-.118-.016-.5zm0 0L6.57.414.914 6.071l.354.354.353.353 5.657-5.657-.353-.353z" fill="#222"/></svg><svg fill="none" viewBox="0 0 8 8" id="ourProjectsWhite" xmlns="http://www.w3.org/2000/svg"><path d="M6.583 1.394l.357-.009-.008-.34-.34-.009-.01.358zm-5.556 5.05a.357.357 0 10.505.506l-.505-.506zM6.67 5.018l.358-.009-.089-3.624-.357.009-.358.009.089 3.623.357-.008zm-.088-3.624l.008-.358L2.968.948l-.01.357-.008.358 3.624.088.009-.357zm0 0L6.33 1.14 1.027 6.444l.252.253.253.253 5.304-5.303-.253-.253z" fill="#fff"/></svg><svg fill="none" viewBox="0 0 21 21" id="svg" xmlns="http://www.w3.org/2000/svg"><path d="M10.48 1.104a9.532 9.532 0 110 19.064 9.532 9.532 0 010-19.064z" fill="#1C2D4A" stroke="#1C2D4A" stroke-width="1.121"/><path d="M10.497 5.422c2.358 0 3.924 1.848 3.924 3.904 0 .715-.053 1.318-.287 1.99-1.498.15-2.577.732-3.29 1.654a4.22 4.22 0 00-.354.544 4.241 4.241 0 00-.345-.537c-.696-.917-1.75-1.507-3.21-1.66-.283-.732-.394-1.344-.394-2.008a3.89 3.89 0 013.956-3.887z" stroke="#F2F2F2" stroke-width="2.243"/></svg><svg fill="none" viewBox="0 0 21 21" id="time" xmlns="http://www.w3.org/2000/svg"><path d="M10.48.945c5.255 0 9.532 4.277 9.532 9.532s-4.277 9.532-9.532 9.532S.95 15.732.948 10.477C.948 5.222 5.225.945 10.48.945z" fill="#1C2D4A" stroke="#1C2D4A" stroke-width="1.121"/></svg><svg fill="none" viewBox="0 0 54 53" id="whatsapp" xmlns="http://www.w3.org/2000/svg"><ellipse cx="26.686" cy="26.203" rx="26.686" ry="25.86" fill="url(#kpaint0_linear_69_420)"/><path d="M27.43 13.418c6.79 0 12.394 5.364 12.394 12.063 0 6.7-5.605 12.064-12.394 12.064-2.267 0-4.392-.594-6.228-1.637l-3.123.644-2.567.528.698-2.526.73-2.646a11.748 11.748 0 01-1.91-6.427c0-6.7 5.604-12.063 12.394-12.063h.006z" stroke="#fff" stroke-width="3.207"/><path d="M32.8 30.608l-.09.088a2.641 2.641 0 01-1.716.743h-.452c-2.391 0-4.313-.865-6.343-2.827-2.157-2.09-3.026-4.057-2.906-6.584.033-.628.306-1.22.767-1.663l.091-.089a2.665 2.665 0 012.21-.722 2.616 2.616 0 011.925 1.276l.126.222c.159.28.22.603.173.92-.046.317-.197.61-.43.837l-.767.743a8.496 8.496 0 001.716 2.217 8.722 8.722 0 002.288 1.663l.76-.732a1.568 1.568 0 011.842-.222l.23.122a2.534 2.534 0 011.316 1.866 2.485 2.485 0 01-.745 2.142h.006z" fill="#fff"/><defs><linearGradient id="kpaint0_linear_69_420" x1="48.247" y1="3.818" x2="13.065" y2="53.119" gradientUnits="userSpaceOnUse"><stop stop-color="#65C84C"/><stop offset="1" stop-color="#30871A"/></linearGradient></defs></svg></svg>